HIERARCHY
ROOT Hips
{
	OFFSET -0.001795 -0.223333 0.028219
	CHANNELS 6 Xposition Yposition Zposition Zrotation Yrotation Xrotation 
	JOINT LeftUpLeg
	{
		OFFSET 0.069520 -0.091406 -0.006815
		CHANNELS 3 Zrotation Yrotation Xrotation
		JOINT LeftLeg
		{
			OFFSET 0.034277 -0.375199 -0.004496
			CHANNELS 3 Zrotation Yrotation Xrotation
			JOINT LeftFoot
			{
				OFFSET -0.013596 -0.397961 -0.043693
				CHANNELS 3 Zrotation Yrotation Xrotation
				JOINT LeftToe
				{
					OFFSET 0.026358 -0.055791 0.119288
					CHANNELS 3 Zrotation Yrotation Xrotation
					End Site
					{
						OFFSET 0.000000 0.000000 0.000000
					}
				}
			}
		}
	}
	JOINT RightUpLeg
	{
		OFFSET -0.067670 -0.090522 -0.004320
		CHANNELS 3 Zrotation Yrotation Xrotation
		JOINT RightLeg
		{
			OFFSET -0.038290 -0.382569 -0.008850
			CHANNELS 3 Zrotation Yrotation Xrotation
			JOINT RightFoot
			{
				OFFSET 0.015774 -0.398415 -0.042312
				CHANNELS 3 Zrotation Yrotation Xrotation
				JOINT RightToe
				{
					OFFSET -0.025372 -0.048144 0.123348
					CHANNELS 3 Zrotation Yrotation Xrotation
					End Site
					{
						OFFSET 0.000000 0.000000 0.000000
					}
				}
			}
		}
	}
	JOINT Spine
	{
		OFFSET -0.002533 0.108963 -0.026696
		CHANNELS 3 Zrotation Yrotation Xrotation
		JOINT Spine1
		{
			OFFSET 0.005487 0.135180 0.001092
			CHANNELS 3 Zrotation Yrotation Xrotation
			JOINT Spine2
			{
				OFFSET 0.001457 0.052922 0.025425
				CHANNELS 3 Zrotation Yrotation Xrotation
				JOINT Neck
				{
					OFFSET -0.002778 0.213870 -0.042857
					CHANNELS 3 Zrotation Yrotation Xrotation
					JOINT Head
					{
						OFFSET 0.005152 0.064970 0.051349
						CHANNELS 3 Zrotation Yrotation Xrotation
						End Site
						{
							OFFSET 0.000000 0.000000 0.000000
						}
					}
				}
				JOINT LeftShoulder
				{
					OFFSET 0.078845 0.121749 -0.034090
					CHANNELS 3 Zrotation Yrotation Xrotation
					JOINT LeftArm
					{
						OFFSET 0.090977 0.030469 -0.008868
						CHANNELS 3 Zrotation Yrotation Xrotation
						JOINT LeftForeArm
						{
							OFFSET 0.259612 -0.012772 -0.027456
							CHANNELS 3 Zrotation Yrotation Xrotation
							JOINT LeftHand
							{
								OFFSET 0.249234 0.008986 -0.001171
								CHANNELS 3 Zrotation Yrotation Xrotation
								End Site
								{
									OFFSET 0.000000 0.000000 0.000000
								}
							}
						}
					}
				}
				JOINT RightShoulder
				{
					OFFSET -0.081759 0.118833 -0.038615
					CHANNELS 3 Zrotation Yrotation Xrotation
					JOINT RightArm
					{
						OFFSET -0.096012 0.032551 -0.009143
						CHANNELS 3 Zrotation Yrotation Xrotation
						JOINT RightForeArm
						{
							OFFSET -0.253742 -0.013329 -0.021401
							CHANNELS 3 Zrotation Yrotation Xrotation
							JOINT RightHand
							{
								OFFSET -0.255298 0.007772 -0.005559
								CHANNELS 3 Zrotation Yrotation Xrotation
								End Site
								{
									OFFSET 0.000000 0.000000 0.000000
								}
							}
						}
					}
				}
			}
		}
	}
}
MOTION
Frames: 15
Frame Time: 0.05000000
0.000000 0.850488 0.000000 2.792186 -0.661783 2.470410 -3.268264 -0.187661 -2.360877 -2.741924 0.233434 6.113679 7.596466 3.656974 -37.016954 0.000000 0.000000 0.000000 -2.672134 0.552236 -5.739810 2.778361 -0.136335 8.951464 -7.095619 0.994319 -37.799847 0.000000 0.000000 0.000000 -0.901540 0.185760 -4.892310 -0.497394 0.502326 -13.017592 -1.008583 2.629168 28.024956 5.173926 -0.102439 -32.036057 0.000000 0.000000 0.000000 20.583531 4.589307 0.725888 -88.655242 -11.516012 -3.237802 -10.394679 -22.926443 3.201169 0.000000 0.000000 0.000000 -21.760347 -6.952515 -0.486508 93.686334 8.806801 0.158048 5.995430 23.433789 2.154887 0.000000 0.000000 0.000000 
-0.020353 0.849517 -0.170706 3.088677 -0.208507 1.083114 -3.497244 0.110144 0.347173 -2.631151 0.232044 4.983204 7.758248 3.787054 -37.416153 0.000000 0.000000 0.000000 -2.674818 0.411726 -4.294742 2.108299 0.006202 10.421711 -7.477824 -0.606627 -39.502640 0.000000 0.000000 0.000000 -1.275427 0.101859 -2.757491 -0.419277 0.473177 -12.684227 -1.324973 1.952069 27.685542 4.443016 0.124127 -31.705193 0.000000 0.000000 0.000000 20.354095 4.574150 0.610597 -88.383391 -11.027060 -3.395724 -9.579867 -22.905477 3.034810 0.000000 0.000000 0.000000 -21.438625 -6.484573 -0.300016 93.694642 9.291252 -0.020554 5.985047 23.512126 2.159119 0.000000 0.000000 0.000000 
-0.056235 0.849402 -0.322027 3.211320 0.659200 2.728461 -2.906010 -0.179113 -2.363692 -3.656237 0.362699 6.791505 7.870663 3.347080 -37.840249 0.000000 0.000000 0.000000 -3.680583 0.604059 -6.593593 3.856971 -0.332323 12.704160 -7.445989 -3.272444 -40.036735 0.000000 0.000000 0.000000 -1.637984 0.167256 -4.472326 -0.324732 0.458684 -12.877726 -1.426871 1.155064 27.919527 4.047674 0.238266 -31.474049 0.000000 0.000000 0.000000 19.551772 5.028176 0.374718 -87.282775 -9.413933 -4.439966 -9.770426 -23.638570 3.190171 0.000000 0.000000 0.000000 -20.638983 -6.748150 -0.366115 93.025312 7.600105 -1.823429 6.112367 24.540230 2.309208 0.000000 0.000000 0.000000 
-0.115460 0.848851 -0.444247 3.448150 1.637219 5.683987 -2.700511 -0.440564 -5.251739 -4.098473 0.396758 7.017510 7.867567 2.385290 -37.952048 0.000000 0.000000 0.000000 -3.082100 0.891795 -9.470674 3.051144 -0.155607 13.891073 -7.374691 -3.853659 -41.380975 0.000000 0.000000 0.000000 -2.077076 0.293964 -7.969215 -0.267229 0.440877 -12.187337 -1.652215 0.631857 28.244176 3.924663 0.251991 -30.862262 0.000000 0.000000 0.000000 19.202176 4.832662 0.372892 -86.425830 -9.230710 -4.401472 -8.445970 -23.771395 2.931054 0.000000 0.000000 0.000000 -19.816308 -6.820671 -0.512942 92.632364 6.747216 -2.279051 4.745924 25.300238 2.132848 0.000000 0.000000 0.000000 
-0.206917 0.847325 -0.527192 3.257707 1.201612 7.806011 -2.340911 -0.575755 -6.809351 -3.783712 0.335052 6.841488 7.895259 3.287607 -38.135550 0.000000 0.000000 0.000000 -2.874107 1.103651 -11.619504 4.041576 -0.354475 14.658089 -7.340104 -4.164040 -41.376043 0.000000 0.000000 0.000000 -2.114360 0.386988 -10.450761 -0.307274 0.457376 -12.439069 -1.672135 0.208839 29.039973 3.512488 0.361545 -30.730234 0.000000 0.000000 0.000000 19.174737 5.229969 0.169573 -86.211220 -7.903563 -4.993461 -8.411825 -23.239542 2.866648 0.000000 0.000000 0.000000 -19.735698 -7.174960 -0.515064 92.733994 6.384563 -2.826298 5.255360 24.818882 2.195323 0.000000 0.000000 0.000000 
-0.314336 0.846258 -0.550946 3.136564 0.351101 7.951740 -2.551973 -0.483985 -5.984703 -2.732374 0.173582 8.035362 8.003334 4.480630 -38.772239 0.000000 0.000000 0.000000 -1.911454 1.137302 -11.740918 3.519730 -0.209966 15.598027 -7.575400 -2.884685 -42.085000 0.000000 0.000000 0.000000 -1.709767 0.394820 -10.310313 -0.200983 0.407488 -12.387719 -1.732677 0.749884 29.190882 3.817626 0.214981 -30.442914 0.000000 0.000000 0.000000 19.638262 5.170872 0.243610 -86.501336 -7.448788 -5.454182 -8.329845 -22.655117 2.762431 0.000000 0.000000 0.000000 -19.786851 -7.342951 -0.564375 93.037513 6.625707 -2.467383 5.436920 24.154210 2.155369 0.000000 0.000000 0.000000 
-0.432972 0.845794 -0.526736 2.803468 -0.784390 9.185102 -2.184538 -0.821917 -9.166418 -2.680787 0.129120 13.728960 8.177761 7.326431 -39.394652 0.000000 0.000000 0.000000 -1.468925 1.267450 -13.007987 3.881477 -0.253906 16.632057 -7.711092 -1.722248 -42.212970 0.000000 0.000000 0.000000 -1.227827 0.455777 -11.576062 -0.237917 0.401153 -12.204913 -1.517565 0.835405 29.566634 3.833852 0.111865 -29.997894 0.000000 0.000000 0.000000 19.668516 5.641120 0.056066 -87.348607 -6.157229 -6.179718 -7.442034 -21.972773 2.512616 0.000000 0.000000 0.000000 -19.720815 -7.501159 -0.533602 93.074854 6.853953 -2.473958 5.670943 23.508683 2.134031 0.000000 0.000000 0.000000 
-0.559230 0.845328 -0.454089 2.497728 -1.320797 10.509642 -1.286127 -1.558486 -16.751987 -3.349543 0.331594 27.567486 8.291152 9.655392 -39.479174 0.000000 0.000000 0.000000 -1.087817 1.201981 -12.072428 4.560327 -0.384125 15.141458 -7.760114 -3.719368 -42.252490 0.000000 0.000000 0.000000 -0.851169 0.503888 -12.478579 -0.220606 0.382001 -11.919326 -1.334882 0.966142 29.939863 3.373939 0.335692 -30.083617 0.000000 0.000000 0.000000 20.016366 5.692676 0.050100 -87.417039 -4.764013 -7.201899 -7.303544 -21.437272 2.415098 0.000000 0.000000 0.000000 -20.146895 -7.229843 -0.447499 93.934201 6.837383 -2.371974 5.950492 23.417652 2.177393 0.000000 0.000000 0.000000 
-0.649516 0.844999 -0.292451 2.334343 -2.699445 10.645098 -1.512106 -2.474780 -26.046556 -3.408031 0.695309 45.329125 7.749613 10.751555 -32.697240 0.000000 0.000000 0.000000 -1.429325 0.985669 -9.589768 5.226361 -0.480887 13.185568 -7.986799 -2.999505 -42.652018 0.000000 0.000000 0.000000 -0.756293 0.487927 -11.941182 -0.496825 0.463676 -12.149443 -0.278832 2.610902 30.469527 3.570880 0.484897 -31.041206 0.000000 0.000000 0.000000 20.164508 5.972580 0.210110 -87.020192 -4.781000 -7.930115 -8.991671 -21.469014 2.723475 0.000000 0.000000 0.000000 -20.432393 -7.078352 -0.629744 93.442782 6.651197 -1.683128 6.920690 24.008330 2.434293 0.000000 0.000000 0.000000 
-0.692297 0.845253 -0.020714 2.280747 -3.472000 11.758392 -0.550826 -3.095519 -35.500893 -5.088044 2.163406 55.344492 7.469182 11.927061 -26.845069 0.000000 0.000000 0.000000 -1.219099 0.793938 -7.336271 4.293093 -0.284636 9.906662 -8.004971 -0.128133 -42.471351 0.000000 0.000000 0.000000 -0.033504 0.506281 -12.207052 -0.794606 0.552193 -12.102086 0.487408 4.962787 30.795190 4.202563 0.486868 -31.064601 0.000000 0.000000 0.000000 19.751714 5.785955 0.581560 -86.490593 -4.875844 -9.174836 -9.785506 -22.502159 3.002742 0.000000 0.000000 0.000000 -20.816217 -7.017128 -1.010528 93.234563 5.945982 -0.568522 5.481135 25.499791 2.323234 0.000000 0.000000 0.000000 
-0.704840 0.843524 0.375343 2.766583 -3.491693 14.293278 -1.014536 -3.612415 -40.841585 -4.838288 1.762676 51.710496 7.559187 10.891051 -31.253877 0.000000 0.000000 0.000000 -0.861760 0.763242 -6.971199 2.472747 -0.035781 7.108080 -7.977083 0.827912 -42.715196 0.000000 0.000000 0.000000 -0.237955 0.623173 -14.997409 -0.809752 0.555153 -11.912851 0.825028 5.991841 31.206864 4.465288 0.538105 -31.086898 0.000000 0.000000 0.000000 20.249539 5.803526 0.866011 -87.005378 -4.537194 -10.147885 -11.249547 -23.799619 3.506720 0.000000 0.000000 0.000000 -21.949006 -6.628443 -1.113887 93.363957 5.642602 0.467897 5.505796 26.524726 2.431734 0.000000 0.000000 0.000000 
-0.682357 0.840902 0.894065 2.899212 -3.481202 15.254375 -1.489980 -3.823559 -42.011459 -4.389815 1.092774 41.116874 7.317504 8.436693 -33.343380 0.000000 0.000000 0.000000 -0.260707 0.610596 -5.775006 1.630226 0.073363 7.065204 -8.074072 0.012069 -43.171842 0.000000 0.000000 0.000000 -0.408912 0.635916 -15.281763 -0.935896 0.601418 -12.042498 1.189780 6.674984 31.204061 4.697773 0.508383 -30.710687 0.000000 0.000000 0.000000 20.738987 6.082789 1.040923 -87.012060 -5.094278 -10.168989 -12.419933 -24.074249 3.794362 0.000000 0.000000 0.000000 -22.313946 -6.595838 -1.238971 92.783879 6.269228 1.801033 5.998947 25.932067 2.443484 0.000000 0.000000 0.000000 
-0.640465 0.838618 1.584813 3.006203 -4.052078 15.613876 -2.212395 -3.847771 -40.591149 -4.185755 0.821280 33.002015 6.989863 7.202813 -32.828149 0.000000 0.000000 0.000000 -1.026450 0.690830 -5.853382 1.548500 0.225323 12.559660 -8.284246 -0.920218 -44.066864 0.000000 0.000000 0.000000 -0.927026 0.640643 -15.423056 -1.115958 0.654378 -11.848021 1.214710 6.094464 31.592867 4.719964 0.335211 -30.177951 0.000000 0.000000 0.000000 19.821684 6.631561 0.641939 -86.148526 -5.427172 -9.197591 -12.113101 -24.624321 3.836685 0.000000 0.000000 0.000000 -21.861222 -6.295176 -1.070347 91.851489 6.743481 1.448226 6.245283 27.204254 2.675282 0.000000 0.000000 0.000000 
-0.591132 0.837220 2.419825 3.179901 -5.358760 15.577670 -3.149540 -3.750539 -37.786325 -3.537675 0.649785 32.831553 7.120016 7.617294 -34.599700 0.000000 0.000000 0.000000 -2.899445 1.226721 -11.048984 3.259764 0.179028 30.042411 -8.015499 -2.602187 -41.725950 0.000000 0.000000 0.000000 -1.453668 0.656676 -15.988385 -1.187126 0.659998 -11.509774 0.861484 5.247741 31.448117 4.815694 0.029137 -29.526435 0.000000 0.000000 0.000000 19.245288 6.773531 0.263745 -85.020707 -5.989954 -7.602698 -12.254275 -23.321881 3.663370 0.000000 0.000000 0.000000 -21.648720 -6.803940 -0.858921 91.602890 6.961829 0.464568 5.960618 27.108251 2.614313 0.000000 0.000000 0.000000 
-0.559120 0.838453 3.284233 3.660837 -5.601868 14.710365 -4.219966 -3.365288 -31.850142 -3.170845 0.482340 30.335332 7.206235 5.774177 -37.462009 0.000000 0.000000 0.000000 -3.312606 1.840018 -20.020859 2.933794 0.880421 50.707381 -7.025132 -1.313314 -35.636329 0.000000 0.000000 0.000000 -2.143409 0.597550 -14.348209 -1.157046 0.646608 -11.363793 -0.452883 2.667957 30.473538 4.069406 0.051356 -30.078372 0.000000 0.000000 0.000000 18.610636 6.698433 -0.307653 -83.960833 -7.203558 -4.712012 -11.523942 -21.076959 3.149081 0.000000 0.000000 0.000000 -21.030511 -7.170203 -0.360231 91.766121 8.136983 -0.779462 5.927107 25.464481 2.392909 0.000000 0.000000 0.000000 
